<svg xmlns="http://www.w3.org/2000/svg" viewBox="0 0 191 41" fill="none">
  <path d="M61.26 19.12V16h-3.72v-4.2l-3.24.96V16h-2.76v3.12h2.76v7.2c0 3.9 1.98 5.28 6.96 4.68v-2.91c-2.46.12-3.72.15-3.72-1.77v-7.2h3.72zM75.462 16v2.13c-1.14-1.56-2.91-2.52-5.25-2.52-4.08 0-7.47 3.42-7.47 7.89 0 4.44 3.39 7.89 7.47 7.89 2.34 0 4.11-.96 5.25-2.55V31h3.24V16h-3.24zm-4.74 12.3c-2.7 0-4.74-2.01-4.74-4.8s2.04-4.8 4.74-4.8 4.74 2.01 4.74 4.8-2.04 4.8-4.74 4.8zM84.099 13.75c1.14 0 2.07-.96 2.07-2.07 0-1.14-.93-2.07-2.07-2.07-1.14 0-2.07.93-2.07 2.07 0 1.11.93 2.07 2.07 2.07zM82.479 31h3.24V16h-3.24v15zM89.481 31h3.24V9.1h-3.24V31zM113.763 16l-2.94 10.35-3.12-10.35h-3.09l-3.15 10.35L98.553 16h-3.42l4.71 15h3.18l3.15-10.11 3.12 10.11h3.18l4.71-15h-3.42zM121.189 13.75c1.14 0 2.07-.96 2.07-2.07 0-1.14-.93-2.07-2.07-2.07-1.14 0-2.07.93-2.07 2.07 0 1.11.93 2.07 2.07 2.07zM119.569 31h3.24V16h-3.24v15zM134.461 15.61c-2.04 0-3.66.75-4.65 2.31V16h-3.24v15h3.24v-8.04c0-3.06 1.68-4.32 3.81-4.32 2.04 0 3.36 1.2 3.36 3.48V31h3.24v-9.21c0-3.9-2.4-6.18-5.76-6.18zM155.589 10v8.13c-1.14-1.56-2.91-2.52-5.25-2.52-4.08 0-7.47 3.42-7.47 7.89 0 4.44 3.39 7.89 7.47 7.89 2.34 0 4.11-.96 5.25-2.55V31h3.24V10h-3.24zm-4.74 18.3c-2.7 0-4.74-2.01-4.74-4.8s2.04-4.8 4.74-4.8 4.74 2.01 4.74 4.8-2.04 4.8-4.74 4.8z" fill="#2D3748"/>
  <path fill-rule="evenodd" clip-rule="evenodd" d="M23 10c-5.333 0-8.667 2.667-10 8 2-2.667 4.333-3.667 7-3 1.522.38 2.609 1.484 3.813 2.706C25.773 19.696 28.043 22 33 22c5.333 0 8.667-2.667 10-8-2 2.667-4.333 3.667-7 3-1.521-.38-2.609-1.484-3.813-2.706C30.227 12.304 27.957 10 23 10zM13 22c-5.333 0-8.667 2.667-10 8 2-2.667 4.333-3.667 7-3 1.521.38 2.609 1.484 3.813 2.706C15.773 31.696 18.043 34 23 34c5.333 0 8.667-2.667 10-8-2 2.667-4.333 3.667-7 3-1.521-.38-2.609-1.484-3.813-2.706C20.227 24.304 17.957 22 13 22z" fill="url(#paint0_linear)"/>
  <path d="M175.064 26.696c2.156 0 3.752-1.288 3.752-3.402V16.7h-1.932v6.44c0 .952-.504 1.666-1.82 1.666s-1.82-.714-1.82-1.666V16.7h-1.918v6.594c0 2.114 1.596 3.402 3.738 3.402zM180.837 16.7v9.8h1.932v-9.8h-1.932z" fill="#2D3748"/>
  <path fill-rule="evenodd" clip-rule="evenodd" d="M166 16a6 6 0 016-6h10a6 6 0 016 6v10a6 6 0 01-6 6h-10a6 6 0 01-6-6V16zm6-4a4 4 0 00-4 4v10a4 4 0 004 4h10a4 4 0 004-4V16a4 4 0 00-4-4h-10z" fill="#2D3748"/>
  <defs>
    <linearGradient id="paint0_linear" x1="1.889" y1="10" x2="43" y2="33.704" gradientUnits="userSpaceOnUse">
      <stop stop-color="#2298BD"/>
      <stop offset="1" stop-color="#0ED7B5"/>
    </linearGradient>
  </defs>
</svg>
